<?xml version="1.0" standalone="no"?>
<!DOCTYPE svg PUBLIC "-//W3C//DTD SVG 20010904//EN"
 "http://www.w3.org/TR/2001/REC-SVG-20010904/DTD/svg10.dtd">
<svg version="1.0" xmlns="http://www.w3.org/2000/svg"
 width="92.000000pt" height="82.000000pt" viewBox="0 0 92.000000 82.000000"
 preserveAspectRatio="xMidYMid meet">

<g transform="translate(0.000000,82.000000) scale(0.100000,-0.100000)"
fill="#000000" stroke="none">
<path d="M470 625 l-135 -135 32 -32 c27 -27 34 -30 48 -18 14 11 21 8 50 -20
19 -19 35 -37 35 -41 0 -14 -119 -15 -125 -1 -2 7 -22 12 -45 12 l-40 0 0 -49
c0 -27 3 -63 6 -80 6 -30 9 -32 48 -29 33 2 41 7 41 23 0 18 10 21 103 29
l103 9 47 -46 48 -47 109 110 109 110 -49 50 -49 50 27 28 c15 15 27 32 27 38
0 13 -113 124 -126 124 -6 0 -23 -14 -39 -30 -31 -33 -56 -27 -34 8 12 18 10
24 -11 47 -13 14 -28 25 -34 25 -6 0 -72 -61 -146 -135z m47 -33 c-64 -64
-120 -113 -124 -109 -9 10 218 238 230 230 5 -3 -43 -58 -106 -121z m288 -21
c-14 -14 -20 -11 -57 26 -36 36 -40 44 -28 58 12 14 18 12 57 -27 38 -38 41
-44 28 -57z m-59 -45 l109 -105 -85 -85 -85 -86 -110 110 -110 110 80 80 c44
44 82 80 86 80 4 0 55 -47 115 -104z m-402 -188 c9 -36 7 -78 -4 -78 -5 0 -10
8 -10 19 0 10 -3 33 -6 50 -7 36 10 43 20 9z m206 -8 c0 -5 -20 -10 -44 -10
-24 0 -58 -3 -75 -6 -19 -4 -31 -2 -31 4 0 13 28 19 98 21 29 0 52 -3 52 -9z"/>
<path d="M129 369 c-31 -31 -5 -89 42 -89 21 0 79 56 79 75 0 13 -56 35 -87
35 -7 0 -22 -9 -34 -21z m69 -31 c-7 -20 -48 -23 -48 -4 0 11 9 16 26 16 16 0
24 -5 22 -12z"/>
<path d="M72 244 c-43 -30 -16 -98 36 -92 26 3 52 37 67 86 6 20 3 22 -37 22
-24 0 -54 -7 -66 -16z m58 -32 c0 -19 -23 -32 -37 -21 -20 17 -15 29 12 29 14
0 25 -4 25 -8z"/>
<path d="M223 221 c-48 -22 -64 -46 -52 -78 9 -24 48 -39 74 -29 20 7 35 48
35 92 0 39 -1 40 -57 15z m17 -50 c0 -24 -18 -37 -32 -23 -8 8 -7 16 2 27 17
21 30 19 30 -4z"/>
</g>
</svg>
